<svg width="23" height="30" viewBox="0 0 23 30" fill="none" xmlns="http://www.w3.org/2000/svg">
<path d="M0.528409 30V0.90909H12.1761C14.3163 0.90909 16.1013 1.22633 17.5312 1.8608C18.9612 2.49527 20.036 3.37595 20.7557 4.50284C21.4754 5.62027 21.8352 6.90814 21.8352 8.36648C21.8352 9.50284 21.608 10.5019 21.1534 11.3636C20.6989 12.2159 20.0739 12.9167 19.2784 13.4659C18.4924 14.0057 17.5928 14.3892 16.5795 14.6165V14.9006C17.6875 14.9479 18.7244 15.2604 19.6903 15.8381C20.6657 16.4157 21.4564 17.2254 22.0625 18.267C22.6686 19.2992 22.9716 20.5303 22.9716 21.9602C22.9716 23.5038 22.5881 24.8816 21.821 26.0938C21.0634 27.2964 19.9413 28.2481 18.4545 28.9489C16.9678 29.6496 15.1354 30 12.9574 30H0.528409ZM6.67898 24.9716H11.6932C13.4072 24.9716 14.6572 24.6449 15.4432 23.9915C16.2292 23.3286 16.6222 22.4479 16.6222 21.3494C16.6222 20.5445 16.428 19.8343 16.0398 19.2188C15.6515 18.6032 15.0975 18.1203 14.3778 17.7699C13.6676 17.4195 12.8201 17.2443 11.8352 17.2443H6.67898V24.9716ZM6.67898 13.0824H11.2386C12.0814 13.0824 12.8295 12.9356 13.483 12.642C14.1458 12.339 14.6667 11.9129 15.0455 11.3636C15.4337 10.8144 15.6278 10.1562 15.6278 9.3892C15.6278 8.33807 15.2538 7.49053 14.5057 6.84659C13.767 6.20265 12.7159 5.88068 11.3523 5.88068H6.67898V13.0824Z" fill="#00DF9A"/>
</svg>
