<svg width="21" height="30" viewBox="0 0 21 30" fill="none" xmlns="http://www.w3.org/2000/svg">
<path d="M0.522727 30V0.90909H10.6932C12.7197 0.90909 14.3911 1.25947 15.7074 1.96023C17.0237 2.65151 18.0038 3.58428 18.6477 4.75852C19.2917 5.92329 19.6136 7.21591 19.6136 8.63636C19.6136 9.88636 19.3911 10.9186 18.946 11.733C18.5104 12.5473 17.9328 13.1913 17.2131 13.6648C16.5028 14.1383 15.7311 14.4886 14.8977 14.7159V15C15.7879 15.0568 16.6828 15.3693 17.5824 15.9375C18.482 16.5057 19.2348 17.3201 19.8409 18.3807C20.447 19.4413 20.75 20.7386 20.75 22.2727C20.75 23.7311 20.4186 25.0426 19.7557 26.2074C19.0928 27.3722 18.0464 28.2955 16.6165 28.9773C15.1866 29.6591 13.3258 30 11.0341 30H0.522727ZM4.04545 26.875H11.0341C13.3352 26.875 14.9688 26.4299 15.9347 25.5398C16.91 24.6402 17.3977 23.5511 17.3977 22.2727C17.3977 21.2879 17.1468 20.3788 16.6449 19.5455C16.143 18.7027 15.428 18.0303 14.5 17.5284C13.572 17.017 12.4735 16.7614 11.2045 16.7614H4.04545V26.875ZM4.04545 13.6932H10.5795C11.6402 13.6932 12.5966 13.4848 13.4489 13.0682C14.3106 12.6515 14.9924 12.0644 15.4943 11.3068C16.0057 10.5492 16.2614 9.65909 16.2614 8.63636C16.2614 7.35795 15.8163 6.27367 14.9261 5.38352C14.036 4.4839 12.625 4.03409 10.6932 4.03409H4.04545V13.6932Z" fill="#00DF9A"/>
</svg>
